<?xml version="1.0" encoding="UTF-8"?>
<svg version="1.1" xmlns="http://www.w3.org/2000/svg" width="32" height="32">
<path d="M0 0 C2.87575868 0.11454804 5.75012112 0.2412847 8.625 0.375 C9.83736328 0.42140625 9.83736328 0.42140625 11.07421875 0.46875 C16.50217124 0.73352817 21.07803632 1.53901816 26 4 C25.08783008 10.64580941 25.08783008 10.64580941 24.40234375 13.41015625 C23.94663897 16.34347924 24.31148052 18.37543117 25 21.25 C25.37267182 22.82453843 25.71678895 24.40693784 26 26 C25 27 25 27 22.71484375 27.09765625 C21.34005859 27.08025391 21.34005859 27.08025391 19.9375 27.0625 C19.01839844 27.05347656 18.09929688 27.04445313 17.15234375 27.03515625 C16.44207031 27.02355469 15.73179688 27.01195313 15 27 C13.64560332 24.29120665 13.93498549 21.99066732 14 19 C13.38511719 19.05800781 12.77023438 19.11601562 12.13671875 19.17578125 C9.67642258 19.31311836 7.44005906 19.35908671 5 19 C2.89638304 16.5776532 2 15.21754366 2 12 C1.4225 11.87625 0.845 11.7525 0.25 11.625 C-2.02335767 10.99351176 -3.9253529 10.11141809 -6 9 C-6.1875 6.625 -6.1875 6.625 -6 4 C-3 2 -3 2 0 2 C0 1.34 0 0.68 0 0 Z M6 12 C7 15 7 15 7 15 Z M9 15 C13 16 13 16 13 16 Z " fill="#72AB50" transform="translate(6,2)"/>
<path d="M0 0 C0.36458333 4.49652778 0.36458333 4.49652778 -1.3125 6.8125 C-3 8 -3 8 -6 8 C-5.67 9.98 -5.34 11.96 -5 14 C-7 13 -7 13 -8.4375 10.0625 C-9.79632842 6.78256825 -9.79632842 6.78256825 -13 5 C-15.38677076 4.70547416 -17.78626094 4.5071783 -20.1875 4.375 C-22.09595703 4.26285156 -22.09595703 4.26285156 -24.04296875 4.1484375 C-25.01878906 4.09945313 -25.99460937 4.05046875 -27 4 C-27 3.34 -27 2.68 -27 2 C-19.10332482 -4.01651442 -9.01530366 -3.43048085 0 0 Z " fill="#78B358" transform="translate(30,5)"/>
<path d="M0 0 C13.81776765 -0.55353075 13.81776765 -0.55353075 19 3 C19.66 2.01 20.32 1.02 21 0 C23.475 0.495 23.475 0.495 26 1 C25.67 2.32 25.34 3.64 25 5 C23.68 5.33 22.36 5.66 21 6 C21.33 7.98 21.66 9.96 22 12 C20 11 20 11 18.5625 8.0625 C17.20367158 4.78256825 17.20367158 4.78256825 14 3 C11.61322924 2.70547416 9.21373906 2.5071783 6.8125 2.375 C5.54019531 2.30023438 4.26789062 2.22546875 2.95703125 2.1484375 C1.98121094 2.09945313 1.00539063 2.05046875 0 2 C0 1.34 0 0.68 0 0 Z " fill="#9CCB7D" transform="translate(3,7)"/>
<path d="M0 0 C1.32 0.33 2.64 0.66 4 1 C2.1875 3 2.1875 3 0 5 C-0.99 5 -1.98 5 -3 5 C-3 6.32 -3 7.64 -3 9 C-3.99 9 -4.98 9 -6 9 C-6.1875 6.625 -6.1875 6.625 -6 4 C-3 2 -3 2 0 2 C0 1.34 0 0.68 0 0 Z " fill="#8C8338" transform="translate(6,2)"/>
<path d="M0 0 C1.65 0.33 3.3 0.66 5 1 C4.67 2.32 4.34 3.64 4 5 C2.35 4.67 0.7 4.34 -1 4 C-0.67 2.68 -0.34 1.36 0 0 Z " fill="#F2DD99" transform="translate(24,7)"/>
<path d="M0 0 C2.97 0.495 2.97 0.495 6 1 C6 1.66 6 2.32 6 3 C4.68 3 3.36 3 2 3 C2 3.66 2 4.32 2 5 C1.34 5 0.68 5 0 5 C0 3.35 0 1.7 0 0 Z " fill="#F4AC31" transform="translate(13,14)"/>
</svg>
