<?xml version="1.0" encoding="UTF-8"?>
<svg version="1.1" xmlns="http://www.w3.org/2000/svg" width="1584" height="1224">
<path d="M0 0 C9.70692369 1.38670338 16.37857796 5.99985058 24.12353516 11.76318359 C52.5825249 32.87535859 94.86903565 35.82286659 128.9375 30.8125 C140.34536595 28.92544933 151.2700697 25.24726408 162 21 C160.98661234 29.6137951 154.34273951 35.13418664 148.0625 40.4375 C135.00770174 50.34708284 115.76051103 55.24450012 99.5625 55.0625 C98.51191406 55.05347656 97.46132812 55.04445312 96.37890625 55.03515625 C95.59386719 55.02355469 94.80882812 55.01195312 94 55 C94.0690306 55.60406947 94.1380612 56.20813893 94.20918363 56.83051354 C94.87021477 62.95013599 95.18452078 69.00198786 95.27210999 75.15428162 C95.28929862 76.12635073 95.30648725 77.09841985 95.32419676 78.0999456 C95.38032222 81.33146937 95.43052706 84.56305669 95.48071289 87.79467773 C95.51991941 90.12357667 95.55948477 92.45246958 95.59938049 94.78135681 C95.70647698 101.09690344 95.8083422 107.41252455 95.90911031 113.72817492 C96.00503369 119.69892828 96.10448256 125.66962264 96.20375483 131.64032102 C96.40080891 143.50193879 96.59372284 155.36362035 96.78442383 167.2253418 C96.96818647 178.65541276 97.15525897 190.08542332 97.34594727 201.51538086 C97.55443883 214.01276051 97.7610543 226.51016862 97.96453851 239.00763088 C98.07189999 245.60100088 98.17989326 252.19435885 98.28978157 258.7876873 C98.75083337 286.52681584 99.15909176 314.25650328 99 342 C99.58708268 342.12613426 100.17416536 342.25226852 100.77903843 342.38222504 C105.03496492 343.30977154 109.23243204 344.28287668 113.39624023 345.57226562 C114.35010117 345.86597046 115.3039621 346.15967529 116.28672791 346.46228027 C117.28394363 346.77379028 118.28115936 347.08530029 119.30859375 347.40625 C120.35652603 347.73161743 121.40445831 348.05698486 122.48414612 348.39221191 C124.68232471 349.0761421 126.87990326 349.76200355 129.0769043 350.44970703 C132.44943362 351.50372964 135.82515941 352.54703917 139.20117188 353.58984375 C141.34134779 354.25716515 143.48132892 354.92511165 145.62109375 355.59375 C146.6324791 355.90526001 147.64386444 356.21677002 148.68589783 356.53771973 C149.61769363 356.83142456 150.54948944 357.12512939 151.50952148 357.42773438 C152.33064926 357.68373413 153.15177704 357.93973389 153.99778748 358.20349121 C156 359 156 359 158 361 C140.27713341 366.9076222 122.05075831 371.18646445 104 376 C103.67 407.35 103.34 438.7 103 471 C111.91 471 120.82 471 130 471 C137.7361496 471.14778611 145.4685345 471.31891697 153.20263672 471.53491211 C155.36955472 471.5927054 157.5364811 471.65018521 159.70341492 471.7073822 C165.49445642 471.86115979 171.28536787 472.01938911 177.07626104 472.17864299 C183.18815645 472.34605274 189.30015524 472.50960844 195.41213989 472.67372131 C205.66122218 472.94949319 215.9102243 473.22809864 226.15917969 473.50854492 C237.9533898 473.83124899 249.74770491 474.14986058 261.54208744 474.466196 C272.96889166 474.77273175 284.39562721 475.08175574 295.82233047 475.39203072 C300.65028111 475.52310947 305.47825156 475.65341893 310.30624008 475.78309441 C316.00126252 475.93620081 321.69622033 476.0915329 327.39113808 476.24848366 C329.46251887 476.30524383 331.53391911 476.36130021 333.60534096 476.41654205 C347.08031467 476.77651634 360.53788143 477.30874867 374 478 C370.96784543 479.58579156 368.57619539 480.35939779 365.16577148 480.76196289 C364.2063414 480.87870865 363.24691132 480.99545441 362.25840759 481.11573792 C361.22309402 481.23352097 360.18778046 481.35130402 359.12109375 481.47265625 C357.4991787 481.6646183 357.4991787 481.6646183 355.84449768 481.86045837 C353.54755636 482.13043855 351.25017063 482.39666011 348.95239258 482.65942383 C345.50149768 483.05516096 342.0525142 483.46505477 338.60351562 483.87695312 C336.35947574 484.13888538 334.11533758 484.39997724 331.87109375 484.66015625 C330.86614365 484.77996353 329.86119354 484.89977081 328.82579041 485.02320862 C311.12316707 487.0207051 293.31016445 487.21507847 275.515625 487.5 C273.09909752 487.54082494 270.68257335 487.5818463 268.26605225 487.62304688 C263.1624284 487.7092631 258.05877157 487.79301046 252.95507812 487.875 C246.83781185 487.97345159 240.72066295 488.07760471 234.60353065 488.18401539 C200.55549519 488.77179176 166.50542503 489.18225321 132.45410156 489.52294922 C131.34821186 489.53401674 130.24232216 489.54508427 129.10292065 489.55648717 C82.0133081 490.02411159 34.92715228 490.1499994 -12.16449223 490.13529993 C-19.93113938 490.13294582 -27.69778436 490.13275831 -35.46443176 490.13381577 C-36.60399099 490.133969 -37.74355022 490.13412223 -38.91764155 490.13428011 C-41.23910741 490.13460012 -43.56057327 490.13492434 -45.88203913 490.1352527 C-67.32437357 490.1380595 -88.76670364 490.13490226 -110.20903736 490.12945233 C-128.16003106 490.12502832 -146.11101815 490.12578212 -164.06201172 490.13037109 C-258.37542182 490.15378612 -352.68744355 490.13352127 -446.9994266 489.56271523 C-449.59662751 489.54706945 -452.19382984 489.53168477 -454.79103279 489.51638269 C-543.73860954 488.99102285 -632.70109186 487.80547542 -738 483 C-734.22994226 480.56419819 -730.38819912 480.63409472 -726.04499054 480.53526115 C-725.23355095 480.50931623 -724.42211136 480.48337131 -723.5860827 480.45664018 C-720.84993699 480.37147354 -718.11360177 480.29980398 -715.3770752 480.22799683 C-713.4022471 480.16932636 -711.42744338 480.10983033 -709.45266294 480.04957688 C-704.01233453 479.88599548 -698.57173037 479.73419909 -693.13101101 479.5842669 C-687.26829441 479.42066568 -681.40589896 479.24623719 -675.54345703 479.07312012 C-664.05122399 478.73546015 -652.55872653 478.40778691 -641.06611401 478.08332978 C-631.72409105 477.81938662 -622.38219973 477.55109837 -613.04039001 477.27969742 C-612.37696002 477.26042604 -611.71353002 477.24115467 -611.02999608 477.22129931 C-607.66053828 477.12340592 -604.29108232 477.02544946 -600.92162699 476.92747118 C-577.0410682 476.23320106 -553.16025886 475.54792294 -529.27929688 474.86767578 C-506.10726714 474.20761182 -482.93538585 473.54264221 -459.76367188 472.87158203 C-459.0504479 472.8509283 -458.33722393 472.83027457 -457.60238711 472.80899497 C-451.86423373 472.64282592 -446.1260809 472.4766377 -440.38792909 472.3104147 C-414.93360482 471.573061 -389.47916563 470.83969224 -364.02470279 470.10713989 C-360.68797629 470.01109151 -357.3512512 469.91499484 -354.01452706 469.81886471 C-339.31722931 469.39545072 -324.61989873 468.97323038 -309.92246395 468.55459653 C-304.12056203 468.38933672 -298.31867579 468.22357476 -292.51683044 468.05633926 C-287.20198979 467.90317299 -281.88710537 467.75162987 -276.57218164 467.60137464 C-274.65283719 467.54684527 -272.73350881 467.49174652 -270.81419903 467.43600999 C-261.20728548 467.15738106 -251.61231609 466.90950905 -242 467 C-252.16757013 439.73750428 -268.56317129 421.67113447 -294.90771484 409.08886719 C-320.86809942 397.23337421 -352.67741922 394.51866293 -379.6875 404.25 C-394.65965453 410.46520665 -405.57207892 417.34097468 -414.17578125 431.265625 C-415.94350793 433.91532238 -417.52994233 435.98981871 -420 438 C-422.78142043 438.50755847 -425.1457229 438.19028514 -428 438 C-428.83737537 417.87682308 -416.65181261 398.62925829 -404 384 C-403.42894531 383.32710938 -402.85789062 382.65421875 -402.26953125 381.9609375 C-377.57498144 355.17147729 -336.87266976 345.27922545 -302 343 C-281.94094062 342.18715126 -261.72191608 343.05561678 -242 347 C-242 234.14 -242 121.28 -242 5 C-237.05 3.02 -237.05 3.02 -232 1 C-231.45214844 1.54527344 -230.90429688 2.09054688 -230.33984375 2.65234375 C-214.80482116 17.42956036 -194.63966715 26.00312673 -174 31 C-173.00830811 31.2477417 -173.00830811 31.2477417 -171.99658203 31.50048828 C-147.28416581 37.356138 -119.2541207 35.19659343 -94.58398438 30.45751953 C-90.73720734 29.77641029 -86.88716164 29.37991806 -83 29 C-82.5625 31.125 -82.5625 31.125 -83 34 C-93.54899334 45.86761751 -115.78624345 53.81135432 -131 56 C-134.96 56 -138.92 56 -143 56 C-143 167.54 -143 279.08 -143 394 C-131.12 390.04 -119.24 386.08 -107 382 C-96.02218834 378.37882996 -85.04342505 374.76098696 -74.06054688 371.15527344 C-71.87174985 370.43643259 -69.68315286 369.71698619 -67.49462891 368.99731445 C-58.81666788 366.14369936 -50.13670045 363.29631464 -41.45397949 360.45721436 C-38.37338077 359.4498056 -35.29348111 358.44029147 -32.21398926 357.42950439 C-28.24053305 356.12558554 -24.26558829 354.82629927 -20.28958511 353.53016853 C-18.77922367 353.03702657 -17.26935512 352.54237223 -15.76000595 352.04614067 C-13.67612507 351.36134263 -11.59052016 350.68207396 -9.50439453 350.00415039 C-8.31766144 349.61610733 -7.13092834 349.22806427 -5.90823364 348.82826233 C-3 348 -3 348 0 348 C0 233.16 0 118.32 0 0 Z M-1.65795898 415.95263672 C-2.65508408 416.3808371 -3.65220917 416.80903748 -4.67955017 417.25021362 C-6.32123924 417.95780319 -6.32123924 417.95780319 -7.99609375 418.6796875 C-10.33521121 419.68246722 -12.67440678 420.68506474 -15.01367188 421.6875 C-18.68426054 423.26216458 -22.35390015 424.83899336 -26.0222168 426.41894531 C-60.81917502 441.39661022 -95.92169 456.3079721 -133.80810547 461.06323242 C-137.54833394 461.54373413 -140.77260045 461.95799921 -144 464 C-143.67 464.99 -143.34 465.98 -143 467 C-138.39206836 467.74611897 -134.04633725 468.08590157 -129.3828125 468.00390625 C-121.74495782 467.93356561 -114.12540657 468.14487571 -106.4921875 468.40234375 C-105.25383148 468.44409729 -104.01547546 468.48585083 -102.73959351 468.52886963 C-100.13270747 468.61786042 -97.5258455 468.70755889 -94.91900635 468.7979126 C-88.02442077 469.03677655 -81.12943557 469.26360003 -74.234375 469.48828125 C-73.54416889 469.51079704 -72.85396278 469.53331284 -72.14284134 469.55651093 C-58.80525722 469.98969187 -45.46655916 470.33912754 -32.125 470.625 C-30.73979156 470.65555984 -30.73979156 470.65555984 -29.32659912 470.68673706 C-26.69954649 470.74404242 -24.07245369 470.7984862 -21.4453125 470.8515625 C-20.71854309 470.86708664 -19.99177368 470.88261078 -19.24298096 470.89860535 C-11.49259474 471.04503997 -3.75668563 471 4 471 C4 452.19 4 433.38 4 414 C2.02813494 414 0.11544658 415.18884982 -1.65795898 415.95263672 Z " fill="#4F5B9E" transform="translate(959,50)"/>
<path d="M0 0 C6.10461217 0.00102359 12.20922285 0.00044727 18.31383497 -0.00064278 C77.33899045 -0.01018187 136.35126217 0.2337836 195.36924744 1.18847656 C197.17889292 1.21753523 197.17889292 1.21753523 199.02509689 1.24718094 C212.19067269 1.46050583 225.35510542 1.71169483 238.51914597 2.00454712 C241.31279516 2.06637695 244.10647427 2.12669357 246.90016174 2.18676758 C282.31786449 2.95160692 317.72666366 3.97806459 353.13536072 5.078125 C357.25498872 5.20608385 361.37461751 5.3340171 365.49424744 5.46191406 C367.00456354 5.50886414 367.00456354 5.50886414 368.54539108 5.5567627 C382.94414199 6.00341466 397.34345095 6.41513769 411.74424744 6.79003906 C412.62277185 6.81297279 413.50129627 6.83590652 414.40644264 6.85953522 C422.62131284 7.07361988 430.83626716 7.28386306 439.0514307 7.48638535 C467.74228863 8.19662872 467.74228863 8.19662872 481.36924744 9.18847656 C478.90590567 11.65181833 477.82210356 11.59920973 474.41001892 12.01049805 C473.3364212 12.14089478 472.26282349 12.2712915 471.1566925 12.40563965 C469.94679657 12.53893677 468.73690063 12.67223389 467.49034119 12.80957031 C466.17844818 12.95422729 464.86655518 13.09888428 463.51490784 13.2479248 C458.94842455 13.73764844 454.37823296 14.18573206 449.80674744 14.62597656 C449.00832806 14.70376972 448.20990868 14.78156288 447.38729477 14.86171341 C405.84141964 18.86932315 364.13414064 19.39051978 322.43174744 20.12597656 C320.73116932 20.15629079 319.03059126 20.18660871 317.33001328 20.21693039 C281.34674894 20.85476578 245.3592151 21.44081899 209.36924744 21.18847656 C209.39575378 22.3824707 209.42226013 23.57646484 209.4495697 24.80664062 C209.44456319 31.34244786 208.74090527 37.80082281 208.08409119 44.29785156 C207.94628213 45.6868698 207.80867842 47.07590842 207.67126465 48.46496582 C207.22448428 52.95696548 206.76619132 57.44775732 206.30674744 61.93847656 C206.22856781 62.70616867 206.15038818 63.47386078 206.06983948 64.26481628 C197.60449171 147.37869613 185.55944403 230.56262686 141.36924744 349.18847656 C140.9776947 350.01395996 140.58614197 350.83944336 140.182724 351.68994141 C128.64097875 375.89412515 114.22466077 397.2092916 96.36924744 417.18847656 C95.76983337 417.86136719 95.17041931 418.53425781 94.55284119 419.22753906 C75.82935201 439.03032711 46.85961638 455.34009993 19.13926697 456.26269531 C16.73578283 456.28625407 14.33519436 456.27615369 11.93174744 456.25097656 C11.10481384 456.24646484 10.27788025 456.24195313 9.42588806 456.23730469 C7.40697597 456.22563468 5.3881017 456.20770375 3.36924744 456.18847656 C3.36924744 455.52847656 3.36924744 454.86847656 3.36924744 454.18847656 C3.91226501 453.90238525 4.45528259 453.61629395 5.01475525 453.3215332 C15.74337207 447.63600192 26.03242898 442.01714519 35.36924744 434.18847656 C36.2986615 433.42148438 37.22807556 432.65449219 38.18565369 431.86425781 C55.58920307 416.83281947 66.34591201 396.42138306 74.36924744 375.18847656 C74.6480072 374.45935059 74.92676697 373.73022461 75.213974 372.97900391 C97.37406528 313.88102506 105.55044173 248.6510051 111.36924744 186.18847656 C111.44681274 185.35755493 111.52437805 184.5266333 111.60429382 183.67053223 C113.73303007 160.61401339 114.86831406 137.501747 115.93174744 114.37597656 C115.99009766 113.11594818 116.04844788 111.8559198 116.10856628 110.55770874 C117.46937223 80.77729236 118.3592344 50.98386105 119.36924744 21.18847656 C72.17924744 21.18847656 24.98924744 21.18847656 -23.63075256 21.18847656 C-24.29075256 25.14847656 -24.95075256 29.10847656 -25.63075256 33.18847656 C-26.44273151 36.4415642 -27.28072228 39.61361344 -28.25575256 42.81347656 C-28.51445129 43.66393555 -28.77315002 44.51439453 -29.03968811 45.390625 C-35.16987053 64.85851075 -44.74443105 83.3490397 -57.63075256 99.18847656 C-58.0832135 99.74776855 -58.53567444 100.30706055 -59.00184631 100.88330078 C-85.60221211 133.54804537 -122.64417963 153.59412725 -163.63075256 162.18847656 C-164.38856018 162.3536377 -165.1463678 162.51879883 -165.92713928 162.68896484 C-214.00526114 172.72383293 -268.57712182 162.81095079 -309.7938385 136.3984375 C-314.60433743 133.22979945 -319.15966549 129.81718491 -323.63075256 126.18847656 C-324.47549133 125.50398437 -324.47549133 125.50398437 -325.33729553 124.80566406 C-343.33710452 110.1111406 -356.9821929 92.78117644 -367.63075256 72.18847656 C-367.95027893 71.57536621 -368.2698053 70.96225586 -368.59901428 70.33056641 C-375.95653024 56.01167884 -383.63075256 37.47426732 -383.63075256 21.18847656 C-384.70738663 21.19468238 -385.78402069 21.2008882 -386.89328003 21.20728207 C-398.21648848 21.25205488 -409.51342228 21.02047371 -420.82997131 20.65356445 C-422.67531104 20.59583855 -424.52065838 20.53835595 -426.36601257 20.48109436 C-431.32062759 20.32661803 -436.27512457 20.16862898 -441.22960281 20.00983357 C-446.45009529 19.84300774 -451.67067963 19.67910246 -456.89125061 19.51475525 C-465.65311474 19.23847122 -474.41490398 18.95990352 -483.176651 18.67993164 C-493.26150791 18.35770762 -503.34647219 18.03903266 -513.43150234 17.72228056 C-523.19082381 17.41568151 -532.95006592 17.10662258 -542.70927429 16.79644585 C-546.83634566 16.66531241 -550.96344174 16.53500206 -555.09056091 16.40538216 C-559.96304555 16.25223575 -564.83545616 16.0969064 -569.70782089 15.9399929 C-571.48051515 15.88323357 -573.2532321 15.82717721 -575.02597427 15.77193451 C-586.57262885 15.411516 -598.09905355 14.87911956 -609.63075256 14.18847656 C-608.25544574 10.96740144 -607.80677179 10.28529417 -604.57655334 8.50854492 C-600.29828595 6.87787178 -596.03553113 6.43523876 -591.49794006 6.06738281 C-590.19069473 5.94986412 -590.19069473 5.94986412 -588.85704041 5.82997131 C-580.05774022 5.07254836 -571.24590996 4.60580195 -562.42274475 4.23803711 C-559.84582454 4.12976117 -557.26961049 4.01047724 -554.69325256 3.88964844 C-548.34074127 3.6037531 -541.98637704 3.39186425 -535.63075256 3.18847656 C-534.95785187 3.16600483 -534.28495117 3.1435331 -533.59165955 3.1203804 C-505.69495775 2.19265339 -477.80489152 2.1166644 -449.89637756 2.16113281 C-448.98545491 2.16257066 -448.07453225 2.1640085 -447.13600588 2.16548991 C-438.49605569 2.17953374 -429.85611148 2.19632187 -421.21616936 2.21463871 C-397.81270812 2.26407291 -374.4092679 2.28933871 -351.00575256 2.28613281 C-349.90934983 2.28598317 -348.8129471 2.28583352 -347.68332005 2.28567934 C-316.01759364 2.27856076 -284.35678647 2.12162294 -252.69325256 1.74707031 C-251.76875108 1.73614585 -250.84424961 1.7252214 -249.89173293 1.71396589 C-237.75780383 1.56978934 -225.62400138 1.41597822 -213.4902153 1.26029968 C-142.32540658 0.34794415 -71.17080258 -0.01219053 0 0 Z M-307.63075256 21.18847656 C-307.8355028 28.74618623 -307.97448085 36.30316778 -308.07020569 43.86303711 C-308.11015629 46.42841312 -308.16453754 48.9936103 -308.23426819 51.55834961 C-308.63585383 66.72116057 -308.90133309 78.7290488 -299.63075256 91.18847656 C-299.12108948 91.96586182 -298.61142639 92.74324707 -298.08631897 93.54418945 C-296.85377109 95.40571328 -295.55837948 97.17286731 -294.19325256 98.93847656 C-293.7293512 99.55279541 -293.26544983 100.16711426 -292.78749084 100.80004883 C-291.41465099 102.60645416 -290.02531455 104.39881413 -288.63075256 106.18847656 C-287.84313538 107.21328125 -287.05551819 108.23808594 -286.24403381 109.29394531 C-269.50869396 130.46867723 -242.21078112 143.13713447 -215.64637756 146.80175781 C-185.94227158 150.05660062 -158.03711638 141.73691582 -134.63075256 123.18847656 C-131.1982408 120.287617 -127.89748977 117.27402443 -124.63075256 114.18847656 C-123.89211975 113.51429688 -123.15348694 112.84011719 -122.39247131 112.14550781 C-99.72769521 90.68844624 -86.23909749 58.81908784 -84.09901428 27.9440918 C-84.010784 26.67999985 -83.92255371 25.4159079 -83.83164978 24.11351013 C-83.7653537 23.14824905 -83.69905762 22.18298798 -83.63075256 21.18847656 C-96.39240671 20.95567287 -109.15354696 20.7785389 -121.91690063 20.67035484 C-127.8450732 20.61840243 -133.77178177 20.54806125 -139.69911194 20.43408203 C-145.43105723 20.3245633 -151.16160432 20.26545585 -156.89451599 20.23970413 C-159.06972743 20.22137915 -161.24487159 20.18559673 -163.41947937 20.13117599 C-177.48327146 19.7935656 -186.70602674 21.23538164 -197.94929504 29.95340347 C-210.96047613 39.51044517 -228.4834331 43.92910759 -244.40419006 41.82128906 C-255.01204631 39.74522068 -263.87519958 33.70650778 -272.96669006 28.14941406 C-283.49687258 21.78799275 -295.22458499 17.05308737 -307.63075256 21.18847656 Z " fill="#4F5B9E" transform="translate(843.6307525634766,717.8115234375)"/>
</svg>
