<?xml version="1.0" standalone="no"?>
<!DOCTYPE svg PUBLIC "-//W3C//DTD SVG 20010904//EN"
 "http://www.w3.org/TR/2001/REC-SVG-20010904/DTD/svg10.dtd">
<svg version="1.0" xmlns="http://www.w3.org/2000/svg"
 width="213.000000pt" height="436.000000pt" viewBox="0 0 213.000000 436.000000"
 preserveAspectRatio="xMidYMid meet">

<g transform="translate(0.000000,436.000000) scale(0.100000,-0.100000)"
fill="#FFFFFF" stroke="none">
<path d="M925 4201 c-55 -24 -67 -53 -68 -155 -1 -47 -5 -86 -9 -86 -22 0 2
-99 31 -135 10 -11 23 -42 30 -70 6 -27 13 -50 14 -51 1 -1 26 3 54 9 51 10
141 2 184 -17 13 -6 20 5 34 58 10 36 21 66 26 66 12 0 42 99 36 121 -4 15 1
23 19 29 32 13 30 37 -7 93 -87 132 -231 190 -344 138z"/>
<path d="M873 3646 c-48 -42 -107 -70 -245 -115 -53 -18 -102 -38 -108 -46 -6
-7 -24 -62 -39 -122 -16 -59 -42 -158 -59 -219 -17 -61 -36 -137 -41 -170 -6
-32 -15 -86 -21 -119 -5 -33 -10 -76 -10 -96 0 -44 62 -173 189 -394 l92 -160
-3 -124 -3 -125 28 -7 c15 -4 27 -3 27 2 0 5 -7 9 -15 9 -18 0 -20 26 -2 37 7
4 23 23 36 41 15 22 29 31 39 27 11 -4 12 -2 4 8 -17 21 33 80 61 71 19 -6 20
-5 8 10 -18 21 4 53 24 36 9 -8 15 -8 20 0 3 5 2 10 -4 10 -5 0 -11 8 -13 17
-2 13 -12 5 -37 -30 -19 -26 -39 -46 -45 -44 -24 8 -14 29 36 76 55 52 72 62
62 36 -5 -12 -2 -13 12 -8 21 8 44 28 44 39 0 4 -9 -1 -19 -10 -24 -22 -41 -2
-18 21 14 14 19 13 53 -8 21 -12 32 -25 26 -27 -7 -2 -12 -8 -12 -14 0 -5 9
-7 20 -3 24 8 63 -12 54 -27 -4 -7 -3 -8 4 -4 11 7 72 -19 72 -30 0 -3 -4 -2
-10 1 -5 3 -10 1 -10 -4 0 -6 4 -11 10 -11 5 0 7 -7 4 -15 -4 -8 -1 -15 4 -15
6 0 12 9 14 21 l3 20 21 -20 c12 -11 25 -17 28 -14 3 3 -8 -19 -24 -50 l-31
-55 -43 24 c-29 16 -48 35 -55 55 -7 21 -15 28 -23 23 -7 -4 -24 -7 -38 -6
-28 2 -28 3 -183 -202 -75 -100 -96 -134 -91 -150 4 -12 7 -22 8 -23 2 -2 255
19 495 42 85 8 176 15 203 15 26 0 48 4 48 9 0 4 -61 45 -135 90 -102 62 -133
86 -128 98 5 13 17 15 68 10 35 -3 66 -2 72 4 13 13 122 -61 116 -79 -3 -7 -2
-12 3 -11 22 4 35 -2 28 -12 -4 -8 1 -9 16 -4 12 4 20 3 17 -1 -3 -5 6 -10 19
-10 13 -1 24 3 24 8 0 5 -7 75 -16 154 l-17 144 63 122 c34 68 82 169 106 225
63 146 63 151 -25 642 -26 143 -46 230 -56 241 -9 10 -78 43 -154 74 -100 41
-153 69 -191 102 -47 40 -57 44 -103 44 -29 0 -88 3 -132 6 l-80 6 -42 -36z
m-221 -828 c2 -35 1 -76 -2 -93 -6 -28 -7 -29 -17 -10 -12 22 -5 165 7 165 5
0 10 -28 12 -62z m785 -75 c-3 -10 -5 -4 -5 12 0 17 2 24 5 18 2 -7 2 -21 0
-30z m-110 -581 c29 -19 53 -39 53 -43 0 -5 -9 -13 -20 -19 -17 -9 -22 -7 -29
13 -5 13 -34 42 -65 65 -31 24 -56 45 -56 48 0 7 58 -24 117 -64z"/>
<path d="M1038 2193 c7 -3 16 -2 19 1 4 3 -2 6 -13 5 -11 0 -14 -3 -6 -6z"/>
<path d="M765 2100 c3 -5 8 -10 11 -10 2 0 4 5 4 10 0 6 -5 10 -11 10 -5 0 -7
-4 -4 -10z"/>
<path d="M1380 1970 c0 -5 5 -10 11 -10 5 0 7 5 4 10 -3 6 -8 10 -11 10 -2 0
-4 -4 -4 -10z"/>
<path d="M606 1921 c-17 -19 -17 -19 3 -14 12 3 21 12 21 19 0 18 -4 18 -24
-5z"/>
<path d="M495 1778 c-43 -57 -90 -116 -104 -131 l-26 -29 70 6 c39 4 108 7
155 9 l85 2 6 -75 c10 -119 10 -385 0 -505 -6 -60 -11 -228 -13 -372 l-3 -261
-30 -14 c-64 -28 -58 -109 10 -143 22 -12 56 -36 75 -54 19 -19 104 -71 188
-117 l153 -84 187 1 187 0 -165 82 c-91 45 -212 104 -268 131 -56 27 -102 50
-102 51 0 1 12 54 26 116 23 104 26 143 34 444 5 189 15 373 23 430 13 89 33
280 40 375 2 28 7 36 25 38 12 2 22 2 22 0 0 -2 14 -129 30 -283 27 -247 30
-315 30 -590 0 -256 3 -327 19 -411 10 -56 22 -107 26 -115 5 -7 8 -28 7 -47
-4 -48 12 -62 70 -62 51 0 117 -30 278 -127 l55 -33 205 0 205 0 -112 50
c-112 49 -403 187 -410 194 -3 2 7 15 21 29 14 15 26 36 26 47 0 24 -42 70
-63 70 -23 0 -26 41 -36 405 -8 289 -6 382 9 624 10 156 23 287 28 290 6 4 5
11 -3 18 -10 10 -15 9 -19 -4 -4 -9 -9 -13 -10 -3 4 -12 2 -20 -4 -10 -9
-13 -8 -13 2 0 11 -2 11 -10 -1 -8 -12 -11 -13 -19 -1 -7 10 -10 10 -13 1 -3
-9 -31 -13 -93 -14 -50 -1 -93 -5 -97 -10 -4 -6 -13 -4 -22 3 -9 8 -16 9 -16
3 0 -6 -23 -9 -57 -7 -32 1 -64 -3 -71 -8 -10 -8 -16 -7 -21 1 -7 13 -41 6
-41 -7 0 -4 -17 -8 -37 -9 -21 -2 -46 -5 -55 -8 -13 -4 -18 0 -19 13 0 15 -2
15 -7 3 -8 -17 -20 -19 -39 -7 -6 4 -15 2 -18 -4 -4 -5 -13 -8 -21 -5 -8 3
-14 0 -14 -6 0 -7 -7 -3 -15 8 -12 16 -16 17 -24 5 -16 -25 -51 -24 -60 1 -8
22 -8 22 -15 2 -4 -14 -14 -20 -34 -19 -15 1 -33 -3 -39 -8 -9 -6 -19 -5 -29
4 -13 10 -17 10 -24 -1 -10 -16 -38 -7 -46 15 -9 22 15 47 37 40 11 -4 19 -2
19 3 0 6 -5 12 -12 14 -18 6 1 28 24 28 16 0 18 3 9 14 -15 18 11 40 41 33 19
-5 20 -5 5 10 -14 14 -14 18 -1 39 10 14 21 21 31 17 11 -4 14 -2 9 5 -4 7
-11 12 -15 12 -4 0 -43 -46 -86 -102z m-55 -132 c0 -3 -4 -8 -10 -11 -5 -3
-10 -1 -10 4 0 6 5 11 10 11 6 0 10 -2 10 -4z"/>
<path d="M1600 1834 c0 -8 5 -12 10 -9 6 3 10 2 10 -3 0 -5 14 -15 30 -22 17
-7 30 -18 30 -26 0 -8 7 -11 18 -8 16 5 15 4 -1 -9 -10 -9 -33 -14 -53 -13
-19 2 -34 -1 -34 -5 0 -10 47 -11 106 -1 l41 7 -79 52 c-53 36 -78 47 -78 37z"/>
<path d="M1491 1734 c0 -11 3 -14 6 -6 3 7 2 16 -1 19 -3 4 -6 -2 -5 -13z"/>
<path d="M1524 1735 c-19 -14 -18 -14 4 -15 13 0 22 6 22 15 0 19 -1 19 -26 0z"/>
<path d="M1560 1738 c0 -4 9 -8 20 -8 11 0 20 4 20 8 0 4 -9 8 -20 8 -11 0
-20 -4 -20 -8z"/>
<path d="M885 1690 c-3 -5 -1 -10 4 -10 6 0 11 5 11 10 0 6 -2 10 -4 10 -3 0
-8 -4 -11 -10z"/>
</g>
</svg>